<svg width="160" height="41" viewBox="0 0 160 41" fill="none" xmlns="http://www.w3.org/2000/svg">
<path d="M50.8984 21.7156C50.8984 18.9904 51.8248 16.8071 53.6827 15.1762C54.6511 14.3292 55.6143 13.7084 56.5775 13.3138C57.5407 12.9245 58.6933 12.7246 60.0302 12.7246C61.3671 12.7246 62.546 12.914 63.5145 13.2981C64.4829 13.6821 65.4671 14.2976 66.4672 15.1447C68.3409 16.7703 69.2777 18.9799 69.2777 21.784C69.2777 24.5881 68.3725 26.6661 66.5672 28.3444C65.5566 29.2966 64.5198 29.9647 63.4513 30.3435C64.225 30.6539 64.9461 31.0643 65.6198 31.5799C66.2935 32.0954 66.9935 32.7688 67.7251 33.6001L66.4145 33.9315C65.8461 33.1161 65.2092 32.4374 64.5092 31.8903C63.804 31.3431 63.1039 30.9275 62.4092 30.6487C61.7039 30.796 60.9197 30.8696 60.0565 30.8696C58.6723 30.8696 57.4986 30.6697 56.5354 30.2646C55.5722 29.8595 54.6038 29.223 53.6353 28.3391C51.8142 26.6714 50.8984 24.4618 50.8984 21.7051V21.7156ZM53.9143 21.7892C53.9143 24.5775 54.4932 26.6924 55.6564 28.1339C56.4196 29.0651 57.2722 29.6754 58.2144 29.9753C58.367 29.9279 58.446 29.9016 58.4565 29.9016C58.746 29.8332 59.0249 29.7859 59.2933 29.7543C59.4881 29.7385 59.6881 29.728 59.8934 29.728H60.1618C60.467 29.7438 60.6881 29.7543 60.8302 29.7648C60.9723 29.7754 61.2039 29.7964 61.5355 29.8385C61.8671 29.8806 62.046 29.9016 62.0723 29.9016C62.0881 29.9016 62.1092 29.9016 62.1302 29.9121C62.1513 29.9174 62.1671 29.9227 62.1723 29.9227C63.1882 29.586 64.0513 28.9915 64.7566 28.1339C65.325 27.4658 65.7145 26.6293 65.9251 25.6139C66.1356 24.5986 66.2409 23.336 66.2409 21.8103C66.2409 20.2846 66.1356 19.1009 65.9251 18.096C65.7145 17.0912 65.3303 16.2494 64.7829 15.5655C64.1987 14.8237 63.5303 14.2766 62.7776 13.9241C62.025 13.5716 61.1144 13.3928 60.0355 13.3928C59.3302 13.3928 58.7144 13.4769 58.1828 13.64C57.6512 13.8031 57.2038 14.0346 56.8301 14.3239C56.4564 14.6186 56.067 15.0131 55.6617 15.5129C54.4985 16.9544 53.9196 19.043 53.9196 21.784L53.9143 21.7892Z" fill="black" stroke="black" stroke-width="1.39966" stroke-miterlimit="10"/>
<path d="M74.9408 24.6513L75.0741 22.7843V12.7246H77.9001V24.8206C77.9001 25.0744 77.9001 25.2649 77.9057 25.3918C77.9057 25.5187 77.9168 25.6827 77.9279 25.8731C77.939 26.0635 77.9501 26.2222 77.9612 26.3385C77.9723 26.4602 77.989 26.5818 78.0001 26.714C78.0112 26.841 78.0334 26.9626 78.0611 27.0684C78.2832 27.9675 78.7996 28.6868 79.6157 29.2369C80.5097 29.8663 81.7089 30.1836 83.2247 30.1836C84.4295 30.1836 85.5066 29.9721 86.4616 29.549C87.461 29.1153 88.1883 28.6075 88.6381 28.0151C89.1489 27.3117 89.4542 26.6664 89.5542 26.0847C89.7374 24.9687 89.8318 23.9426 89.8318 22.9959V12.7246H90.4814V23.0911C90.4814 24.2705 90.387 25.4182 90.1927 26.5289C90.0705 27.2006 89.6597 27.9358 88.9657 28.7344C88.366 29.459 87.511 30.0356 86.4005 30.4692C85.3234 30.8924 84.052 31.1039 82.5806 31.1039C80.8705 31.1039 79.3992 30.8289 78.1722 30.2788C76.9896 29.7129 76.1512 28.9989 75.6626 28.1368C75.174 27.3223 74.9297 26.3544 74.9297 25.2331C74.9297 25.0427 74.9408 24.847 74.9574 24.646L74.9408 24.6513Z" fill="black" stroke="black" stroke-width="1.38552" stroke-miterlimit="10"/>
<path d="M96.1367 31.1039V12.7246H107.447V13.3485H98.9386V21.137H104.515V21.7609H98.9386V30.48H107.393V31.1039H96.1367Z" fill="black" stroke="black" stroke-width="1.38552" stroke-miterlimit="10"/>
<path d="M111.691 31.1039V12.7246H123.002V13.3485H114.494V21.137H120.069V21.7609H114.494V30.48H122.95V31.1039H111.697H111.691Z" fill="black" stroke="black" stroke-width="1.41379" stroke-miterlimit="10"/>
<path d="M125.828 30.6386V12.7246H128.92L140.534 26.6889V12.7246H141.38V31.1039H140.837L126.508 14.184V30.6439H125.828V30.6386Z" fill="black" stroke="black" stroke-width="1.41379" stroke-miterlimit="10"/>
<path d="M145.627 27.911L146.173 27.3709C146.984 28.3611 147.744 29.0812 148.457 29.5207C149.17 29.9602 150.056 30.262 151.115 30.4209C151.402 30.4526 151.678 30.4738 151.937 30.4844C152.967 30.4844 153.847 30.2144 154.583 29.6743C155.458 29.0441 155.941 28.2922 156.027 27.4238C156.044 27.2809 156.056 27.1432 156.056 27.0108C156.056 26.3013 155.797 25.6712 155.291 25.1258C154.675 24.4956 153.49 23.749 151.736 22.9018C150.223 22.1499 149.061 21.5039 148.256 20.9532C147.502 20.429 146.933 19.7777 146.536 19.0046C146.248 18.4063 146.104 17.8026 146.104 17.1937C146.104 17.0084 146.122 16.823 146.15 16.6324C146.294 15.3669 146.927 14.3661 148.043 13.6354C148.957 13.0264 150.05 12.7246 151.322 12.7246C151.546 12.7246 151.776 12.7352 152.012 12.7511C152.84 12.8252 153.628 13.0211 154.382 13.3388C155.095 13.6407 155.814 14.2072 156.533 15.0492L155.883 15.5098C155.722 15.2927 155.521 15.0703 155.291 14.848C154.445 13.9743 153.381 13.4871 152.098 13.3865C151.868 13.36 151.644 13.3494 151.431 13.3494C150.557 13.3494 149.861 13.5559 149.349 13.9742C148.704 14.4826 148.336 15.0756 148.25 15.7587C148.238 15.8593 148.233 15.9546 148.233 16.0446C148.233 16.7383 148.515 17.3578 149.072 17.9085C149.671 18.5175 150.856 19.2799 152.627 20.196C154.273 21.0114 155.469 21.668 156.211 22.1552C156.953 22.6212 157.523 23.246 157.914 24.0297C158.201 24.6121 158.345 25.2528 158.345 25.9518C158.345 26.1689 158.328 26.386 158.305 26.6084C158.132 28.0751 157.402 29.2348 156.125 30.0873C155.078 30.765 153.801 31.1039 152.294 31.1039C151.977 31.1039 151.644 31.088 151.299 31.0563C150.303 30.9662 149.257 30.6168 148.141 30.0131C147.03 29.4095 146.185 28.7105 145.621 27.9057L145.627 27.911Z" fill="black" stroke="black" stroke-width="1.41379" stroke-miterlimit="10"/>
<path d="M5.29823 27.4009L38.173 27.4988L37.7118 29.3484L3.39529 29.294L2.82812 28.2386L23.665 1.41406L24.9849 2.30623L25.0008 39.1622L21.1419 39.5865L21.1949 6.84861L5.29823 27.3955V27.4009Z" fill="black"/>
<path d="M20.5 41C9.19652 41 0 31.8035 0 20.5C0 9.19651 9.19652 0 20.5 0C31.8035 0 41 9.19651 41 20.5C41 31.8035 31.8035 41 20.5 41ZM20.5 1.58159C10.0647 1.58159 1.57607 10.0703 1.57607 20.5055C1.57607 30.9408 10.0647 39.4295 20.5 39.4295C30.9353 39.4295 39.4239 30.9408 39.4239 20.5055C39.4239 10.0703 30.9353 1.58159 20.5 1.58159Z" fill="black"/>
</svg>
