<svg width="24" height="24" viewBox="0 0 24 24" fill="none" xmlns="http://www.w3.org/2000/svg">
<path d="M11.9808 19.4443C11.7859 19.4443 11.5933 19.409 11.403 19.3385C11.2125 19.268 11.0448 19.1603 10.9 19.0155L9.752 17.9788C7.9725 16.3621 6.40225 14.79 5.04125 13.2625C3.68042 11.735 3 10.1475 3 8.5C3 7.22817 3.43208 6.16025 4.29625 5.29625C5.16025 4.43208 6.22817 4 7.5 4C8.2295 4 8.98908 4.18433 9.77875 4.553C10.5686 4.9215 11.309 5.61667 12 6.6385C12.691 5.61667 13.4314 4.9215 14.2212 4.553C15.0109 4.18433 15.7705 4 16.5 4C17.7718 4 18.8398 4.43208 19.7038 5.29625C20.5679 6.16025 21 7.22817 21 8.5C21 10.1858 20.2917 11.8063 18.875 13.3615C17.4583 14.9167 15.9077 16.4577 14.223 17.9845L13.0807 19.0155C12.9359 19.1603 12.7651 19.268 12.5683 19.3385C12.3714 19.409 12.1756 19.4443 11.9808 19.4443ZM11.5115 7.677C10.9128 6.7115 10.2904 6.024 9.64425 5.6145C8.99808 5.20483 8.28333 5 7.5 5C6.5 5 5.66667 5.33333 5 6C4.33333 6.66667 4 7.5 4 8.5C4 9.2385 4.209 9.99583 4.627 10.772C5.04483 11.5483 5.606 12.3436 6.3105 13.1578C7.015 13.9718 7.82467 14.8044 8.7395 15.6558C9.65417 16.5071 10.6064 17.3833 11.5963 18.2845C11.7116 18.3872 11.8462 18.4385 12 18.4385C12.1538 18.4385 12.2884 18.3872 12.4038 18.2845C13.3936 17.3833 14.3458 16.5071 15.2605 15.6558C16.1753 14.8044 16.985 13.9718 17.6895 13.1578C18.394 12.3436 18.9552 11.5483 19.373 10.772C19.791 9.99583 20 9.2385 20 8.5C20 7.5 19.6667 6.66667 19 6C18.3333 5.33333 17.5 5 16.5 5C15.7167 5 15.0019 5.20483 14.3558 5.6145C13.7096 6.024 13.0872 6.7115 12.4885 7.677C12.4358 7.76667 12.3647 7.83392 12.275 7.87875C12.1853 7.92375 12.0937 7.94625 12 7.94625C11.9063 7.94625 11.8147 7.92375 11.725 7.87875C11.6353 7.83392 11.5642 7.76667 11.5115 7.677Z" fill="black"/>
</svg>
