<svg width="24" height="24" viewBox="0 0 24 24" fill="none" xmlns="http://www.w3.org/2000/svg">
<path d="M9.53837 15.2305C7.9397 15.2305 6.58487 14.6751 5.47387 13.5643C4.36303 12.4533 3.80762 11.0985 3.80762 9.49979C3.80762 7.90113 4.36303 6.54629 5.47387 5.43529C6.58487 4.32446 7.9397 3.76904 9.53837 3.76904C11.137 3.76904 12.4919 4.32446 13.6029 5.43529C14.7137 6.54629 15.2691 7.90113 15.2691 9.49979C15.2691 10.1946 15.146 10.867 14.8999 11.517C14.6537 12.167 14.3306 12.7228 13.9306 13.1843L19.8384 19.092C19.9319 19.1857 19.9819 19.3005 19.9884 19.4363C19.9947 19.5723 19.9447 19.6935 19.8384 19.7998C19.7319 19.9061 19.6139 19.9593 19.4844 19.9593C19.355 19.9593 19.2371 19.9061 19.1306 19.7998L13.2229 13.892C12.7229 14.3177 12.1479 14.6472 11.4979 14.8805C10.8479 15.1139 10.1947 15.2305 9.53837 15.2305ZM9.53837 14.2305C10.8652 14.2305 11.9854 13.7738 12.8989 12.8603C13.8124 11.947 14.2691 10.8268 14.2691 9.49979C14.2691 8.17279 13.8124 7.05263 12.8989 6.13929C11.9854 5.22579 10.8652 4.76904 9.53837 4.76904C8.21137 4.76904 7.0912 5.22579 6.17787 6.13929C5.26437 7.05263 4.80762 8.17279 4.80762 9.49979C4.80762 10.8268 5.26437 11.947 6.17787 12.8603C7.0912 13.7738 8.21137 14.2305 9.53837 14.2305Z" fill="black"/>
</svg>
