<svg width="34" height="27" viewBox="0 0 34 27" fill="none" xmlns="http://www.w3.org/2000/svg">
<g clip-path="url(#clip0_4136_2484)">
<path d="M6.4809 26.5748V24.8493C6.4809 24.1892 6.08458 23.757 5.40424 23.757C5.06407 23.757 4.69417 23.8709 4.43987 24.2462C4.24171 23.9312 3.95768 23.757 3.53164 23.757C3.24761 23.757 2.96359 23.8441 2.73901 24.1591V23.8139H2.14453V26.5748H2.73901V25.0503C2.73901 24.5611 2.99331 24.3299 3.38963 24.3299C3.78594 24.3299 3.9841 24.5879 3.9841 25.0503V26.5748H4.57858V25.0503C4.57858 24.5611 4.86261 24.3299 5.2292 24.3299C5.62552 24.3299 5.82367 24.5879 5.82367 25.0503V26.5748H6.4809ZM15.299 23.8139H14.3346V22.9797H13.7401V23.8139H13.2018V24.3601H13.7401V25.6266C13.7401 26.2598 13.9944 26.6317 14.6748 26.6317C14.9291 26.6317 15.2131 26.5446 15.4112 26.4307L15.2395 25.9114C15.0678 26.0253 14.8696 26.0554 14.7276 26.0554C14.4436 26.0554 14.3313 25.8812 14.3313 25.5964V24.3601H15.2957V23.8139H15.299ZM20.3454 23.7536C20.0052 23.7536 19.7773 23.9279 19.6353 24.1557V23.8106H19.0408V26.5714H19.6353V25.0168C19.6353 24.5578 19.8335 24.2964 20.2034 24.2964C20.3157 24.2964 20.4577 24.3266 20.5733 24.3534L20.745 23.7771C20.6261 23.7536 20.4577 23.7536 20.3454 23.7536ZM12.7196 24.0418C12.4356 23.8408 12.0392 23.7536 11.6132 23.7536C10.9329 23.7536 10.4804 24.0987 10.4804 24.6449C10.4804 25.1039 10.8206 25.3652 11.415 25.449L11.6991 25.4792C12.0095 25.5361 12.1813 25.6232 12.1813 25.7673C12.1813 25.9683 11.9534 26.1124 11.5571 26.1124C11.1607 26.1124 10.847 25.9683 10.6488 25.8243L10.3648 26.2833C10.6753 26.5145 11.1013 26.6284 11.5273 26.6284C12.32 26.6284 12.7757 26.2531 12.7757 25.7371C12.7757 25.248 12.4058 24.99 11.8411 24.9029L11.5571 24.8727C11.3028 24.8426 11.1046 24.7856 11.1046 24.6147C11.1046 24.4137 11.3028 24.2998 11.6165 24.2998C11.9567 24.2998 12.2969 24.4438 12.4686 24.531L12.7196 24.0418ZM28.5359 23.7536C28.1958 23.7536 27.9679 23.9279 27.8259 24.1557V23.8106H27.2314V26.5714H27.8259V25.0168C27.8259 24.5578 28.024 24.2964 28.3939 24.2964C28.5062 24.2964 28.6482 24.3266 28.7638 24.3534L28.9356 23.7838C28.82 23.7536 28.6515 23.7536 28.5359 23.7536ZM20.9399 25.1944C20.9399 26.0286 21.5079 26.6317 22.3864 26.6317C22.7827 26.6317 23.0668 26.5446 23.3508 26.3168L23.0668 25.8276C22.8389 26.0018 22.6143 26.0856 22.3567 26.0856C21.8745 26.0856 21.5343 25.7405 21.5343 25.1944C21.5343 24.675 21.8745 24.3299 22.3567 24.3031C22.611 24.3031 22.8389 24.3902 23.0668 24.5611L23.3508 24.0719C23.0668 23.8408 22.7827 23.757 22.3864 23.757C21.5079 23.7536 20.9399 24.3601 20.9399 25.1944ZM26.4388 25.1944V23.8139H25.8443V24.1591C25.6461 23.9011 25.3621 23.757 24.9922 23.757C24.226 23.757 23.6315 24.3601 23.6315 25.1944C23.6315 26.0286 24.226 26.6317 24.9922 26.6317C25.3885 26.6317 25.6726 26.4877 25.8443 26.2297V26.5748H26.4388V25.1944ZM24.2557 25.1944C24.2557 24.7052 24.5662 24.3031 25.0781 24.3031C25.5603 24.3031 25.9004 24.6784 25.9004 25.1944C25.9004 25.6835 25.5603 26.0856 25.0781 26.0856C24.5695 26.0554 24.2557 25.6802 24.2557 25.1944ZM17.1418 23.7536C16.3492 23.7536 15.7811 24.3299 15.7811 25.191C15.7811 26.0554 16.3492 26.6284 17.1716 26.6284C17.5679 26.6284 17.9642 26.5145 18.2779 26.2531L17.9939 25.8209C17.766 25.9951 17.482 26.1091 17.2013 26.1091C16.8314 26.1091 16.4648 25.9348 16.3789 25.449H18.3902C18.3902 25.3619 18.3902 25.3049 18.3902 25.2178C18.4166 24.3299 17.9047 23.7536 17.1418 23.7536ZM17.1418 24.273C17.5117 24.273 17.766 24.5042 17.8222 24.933H16.4053C16.4615 24.5611 16.7158 24.273 17.1418 24.273ZM31.9112 25.1944V22.7217H31.3168V24.1591C31.1186 23.9011 30.8346 23.757 30.4647 23.757C29.6985 23.757 29.104 24.3601 29.104 25.1944C29.104 26.0286 29.6985 26.6317 30.4647 26.6317C30.861 26.6317 31.145 26.4877 31.3168 26.2297V26.5748H31.9112V25.1944ZM29.7282 25.1944C29.7282 24.7052 30.0386 24.3031 30.5506 24.3031C31.0327 24.3031 31.3729 24.6784 31.3729 25.1944C31.3729 25.6835 31.0327 26.0856 30.5506 26.0856C30.0386 26.0554 29.7282 25.6802 29.7282 25.1944ZM9.82648 25.1944V23.8139H9.232V24.1591C9.03384 23.9011 8.74982 23.757 8.37992 23.757C7.61371 23.757 7.01923 24.3601 7.01923 25.1944C7.01923 26.0286 7.61371 26.6317 8.37992 26.6317C8.77624 26.6317 9.06026 26.4877 9.232 26.2297V26.5748H9.82648V25.1944ZM7.61701 25.1944C7.61701 24.7052 7.92746 24.3031 8.43937 24.3031C8.92155 24.3031 9.26172 24.6784 9.26172 25.1944C9.26172 25.6835 8.92155 26.0856 8.43937 26.0856C7.92746 26.0554 7.61701 25.6802 7.61701 25.1944Z" fill="#B1B1B1"/>
<path d="M21.4518 2.84668H12.5215V19.1235H21.4518V2.84668Z" fill="black" fill-opacity="0.5"/>
<path d="M13.1161 10.9849C13.1161 7.67797 14.6485 4.74292 17 2.84653C15.2694 1.46611 13.0864 0.631836 10.7052 0.631836C5.06425 0.631836 0.5 5.26225 0.5 10.9849C0.5 16.7076 5.06425 21.338 10.7052 21.338C13.0864 21.338 15.2694 20.5037 17 19.1233C14.6452 17.2537 13.1161 14.2919 13.1161 10.9849Z" fill="#B1B1B1"/>
<path d="M33.5 10.9849C33.5 16.7076 28.9357 21.338 23.2948 21.338C20.9136 21.338 18.7306 20.5037 17 19.1233C19.3812 17.2236 20.8839 14.2919 20.8839 10.9849C20.8839 7.67797 19.3515 4.74292 17 2.84653C18.7273 1.46611 20.9103 0.631836 23.2915 0.631836C28.9357 0.631836 33.5 5.2924 33.5 10.9849Z" fill="#B1B1B1"/>
</g>
<defs>
<clipPath id="clip0_4136_2484">
<rect width="33" height="26" fill="white" transform="translate(0.5 0.631836)"/>
</clipPath>
</defs>
</svg>
