<svg width="51" height="16" viewBox="0 0 51 16" fill="none" xmlns="http://www.w3.org/2000/svg">
<path d="M4.375 2.25684H8.5C8.875 2.25684 10 2.13184 10.5 3.88184C10.875 5.00684 11.375 6.75684 12.125 9.38184H12.375C13.125 6.63184 13.75 4.75684 14 3.88184C14.5 2.13184 15.75 2.25684 16.25 2.25684H20.125V14.2568H16.125V7.13184H15.875L13.75 14.2568H10.75L8.625 7.13184H8.25V14.2568H4.375M21.75 2.25684H25.75V9.38184H26.125L28.75 3.50684C29.25 2.38184 30.375 2.25684 30.375 2.25684H34.125V14.2568H30.125V7.13184H29.875L27.25 13.0068C26.75 14.1318 25.5 14.2568 25.5 14.2568H21.75M39.5 10.6318V14.2568H35.75V8.00684H48C47.5 9.50684 45.75 10.6318 43.75 10.6318" fill="#B1B1B1"/>
<path d="M48.25 7.25684C48.75 5.00684 47.25 2.25684 44 2.25684H35.5C35.75 4.88184 38 7.25684 40.375 7.25684" fill="#B1B1B1"/>
</svg>
