<svg width="14" height="14" viewBox="0 0 14 14" fill="none" xmlns="http://www.w3.org/2000/svg">
<path d="M7.00012 7.66131L1.78187 12.8796C1.68821 12.9732 1.57954 13.0211 1.45587 13.0233C1.33221 13.0256 1.22037 12.9768 1.12037 12.8768C1.02221 12.7768 0.973625 12.6686 0.974625 12.5523C0.975625 12.436 1.02512 12.3287 1.12312 12.2306L6.33862 6.99981L1.12312 1.76906C1.03796 1.68373 0.992125 1.57973 0.985625 1.45706C0.979291 1.33423 1.02512 1.22281 1.12312 1.12281C1.22129 1.02281 1.32904 0.970725 1.44637 0.966559C1.56354 0.962392 1.67537 1.01031 1.78187 1.11031L7.00012 6.33831L12.2281 1.11031C12.3153 1.02314 12.4207 0.978476 12.5444 0.976309C12.668 0.973976 12.7831 1.02281 12.8896 1.12281C12.9813 1.22281 13.0266 1.33098 13.0256 1.44731C13.0246 1.56364 12.9751 1.67089 12.8771 1.76906L7.66162 6.99981L12.8771 12.2306C12.9623 12.3159 13.0081 12.4199 13.0146 12.5426C13.021 12.6654 12.9751 12.7768 12.8771 12.8768C12.779 12.9768 12.6712 13.0289 12.5539 13.0331C12.4367 13.0372 12.3281 12.9861 12.2281 12.8796L7.00012 7.66131Z" fill="#FCFBF6"/>
</svg>
