<svg width="24" height="24" viewBox="0 0 24 24" fill="none" xmlns="http://www.w3.org/2000/svg">
<path d="M11.9377 20.377C11.8081 20.377 11.6996 20.3316 11.6125 20.2407C11.5253 20.15 11.4817 20.04 11.4817 19.9105V15.9537C11.4817 15.8242 11.5256 15.7141 11.6132 15.6235C11.7007 15.5328 11.8094 15.4875 11.9392 15.4875C12.0689 15.4875 12.1789 15.5328 12.2692 15.6235C12.3596 15.7141 12.4047 15.8242 12.4047 15.9537V17.4692H19.923C20.0525 17.4692 20.1626 17.5146 20.2532 17.6055C20.3441 17.6963 20.3895 17.8034 20.3895 17.9267C20.3895 18.0564 20.3441 18.1664 20.2532 18.2567C20.1626 18.347 20.0525 18.3922 19.923 18.3922H12.4047V19.9105C12.4047 20.04 12.3593 20.15 12.2685 20.2407C12.1776 20.3316 12.0674 20.377 11.9377 20.377ZM4.07398 18.3922C3.94448 18.3922 3.83439 18.3468 3.74373 18.256C3.65306 18.1651 3.60773 18.0549 3.60773 17.9252C3.60773 17.802 3.65306 17.6952 3.74373 17.6047C3.83439 17.5144 3.94448 17.4692 4.07398 17.4692H8.09223C8.22173 17.4692 8.33181 17.5146 8.42248 17.6055C8.51331 17.6963 8.55873 17.8034 8.55873 17.9267C8.55873 18.0564 8.51331 18.1664 8.42248 18.2567C8.33181 18.347 8.22173 18.3922 8.09223 18.3922H4.07398ZM8.09173 14.426C7.96189 14.426 7.85339 14.3822 7.76623 14.2947C7.67906 14.2072 7.63548 14.0987 7.63548 13.9692V12.4537H4.07398C3.94448 12.4537 3.83439 12.4083 3.74373 12.3175C3.65306 12.2266 3.60773 12.1164 3.60773 11.9867C3.60773 11.8635 3.65306 11.7567 3.74373 11.6662C3.83439 11.5759 3.94448 11.5307 4.07398 11.5307H7.63548V10.003C7.63548 9.8798 7.67931 9.77288 7.76698 9.68221C7.85464 9.59155 7.96331 9.54622 8.09298 9.54622C8.22264 9.54622 8.33264 9.59155 8.42298 9.68221C8.51348 9.77288 8.55873 9.8798 8.55873 10.003V13.9692C8.55873 14.0987 8.51331 14.2072 8.42248 14.2947C8.33164 14.3822 8.22139 14.426 8.09173 14.426ZM11.9385 12.4537C11.809 12.4537 11.7005 12.4083 11.613 12.3175C11.5255 12.2266 11.4817 12.1164 11.4817 11.9867C11.4817 11.8635 11.5255 11.7567 11.613 11.6662C11.7005 11.5759 11.809 11.5307 11.9385 11.5307H19.923C20.0525 11.5307 20.1626 11.5761 20.2532 11.667C20.3441 11.7578 20.3895 11.8649 20.3895 11.9882C20.3895 12.1179 20.3441 12.2279 20.2532 12.3182C20.1626 12.4085 20.0525 12.4537 19.923 12.4537H11.9385ZM15.9042 8.48447C15.7744 8.48447 15.6643 8.43913 15.574 8.34847C15.4836 8.2578 15.4385 8.14771 15.4385 8.01821V4.06147C15.4385 3.93197 15.4839 3.82188 15.5747 3.73121C15.6656 3.64055 15.7758 3.59521 15.9055 3.59521C16.0288 3.59521 16.1356 3.64055 16.226 3.73121C16.3163 3.82188 16.3615 3.93197 16.3615 4.06147V5.57972H19.923C20.0525 5.57972 20.1626 5.62513 20.2532 5.71597C20.3441 5.8068 20.3895 5.91705 20.3895 6.04672C20.3895 6.17638 20.3441 6.2848 20.2532 6.37197C20.1626 6.4593 20.0525 6.50296 19.923 6.50296H16.3615V8.01821C16.3615 8.14771 16.3161 8.2578 16.2252 8.34847C16.1344 8.43913 16.0274 8.48447 15.9042 8.48447ZM4.07398 6.50296C3.94448 6.50296 3.83439 6.45913 3.74373 6.37146C3.65306 6.2838 3.60773 6.17513 3.60773 6.04547C3.60773 5.9158 3.65306 5.8058 3.74373 5.71547C3.83439 5.62496 3.94448 5.57972 4.07398 5.57972H12.0587C12.1817 5.57972 12.2886 5.62513 12.3792 5.71597C12.4701 5.8068 12.5155 5.91705 12.5155 6.04672C12.5155 6.17638 12.4701 6.2848 12.3792 6.37197C12.2886 6.4593 12.1817 6.50296 12.0587 6.50296H4.07398Z" fill="black"/>
</svg>
