<svg width="32" height="32" viewBox="0 0 32 32" fill="none" xmlns="http://www.w3.org/2000/svg">
<g clip-path="url(#clip0_4136_2459)">
<path fill-rule="evenodd" clip-rule="evenodd" d="M0 16C0 7.16347 7.16347 0 16 0C24.8365 0 32 7.16347 32 16C32 24.8365 24.8365 32 16 32C7.16347 32 0 24.8365 0 16ZM16.0008 7.46667C13.6833 7.46667 13.3924 7.4768 12.4822 7.5182C11.5737 7.5598 10.9537 7.70367 10.4111 7.91467C9.8498 8.1326 9.37373 8.4242 8.8994 8.89867C8.42473 9.373 8.13313 9.84907 7.91447 10.4101C7.70293 10.9529 7.55893 11.5732 7.51807 12.4813C7.47733 13.3915 7.46667 13.6825 7.46667 16.0001C7.46667 18.3176 7.477 18.6076 7.5182 19.5178C7.56 20.4263 7.7038 21.0463 7.91467 21.5889C8.1328 22.1502 8.42433 22.6263 8.89887 23.1006C9.373 23.5753 9.84907 23.8675 10.41 24.0855C10.9529 24.2965 11.5732 24.4403 12.4815 24.4819C13.3917 24.5234 13.6824 24.5335 15.9997 24.5335C18.3175 24.5335 18.6074 24.5234 19.5177 24.4819C20.4261 24.4403 21.0469 24.2965 21.5899 24.0855C22.1509 23.8675 22.6263 23.5753 23.1004 23.1006C23.5751 22.6263 23.8667 22.1502 24.0853 21.5891C24.2951 21.0463 24.4391 20.4261 24.4818 19.518C24.5227 18.6077 24.5333 18.3176 24.5333 16.0001C24.5333 13.6825 24.5227 13.3917 24.4818 12.4815C24.4391 11.573 24.2951 10.9529 24.0853 10.4103C23.8667 9.84907 23.5751 9.373 23.1004 8.89867C22.6257 8.424 22.1511 8.13247 21.5893 7.91467C21.0453 7.70367 20.4249 7.5598 19.5164 7.5182C18.6061 7.4768 18.3164 7.46667 15.9981 7.46667H16.0008Z" fill="black"/>
<path d="M16.001 11.6179C13.5808 11.6179 11.6187 13.5801 11.6187 16.0002C11.6187 18.4203 13.5808 20.3816 16.001 20.3816C18.4211 20.3816 20.3825 18.4203 20.3825 16.0002C20.3825 13.5801 18.4211 11.6179 16.001 11.6179Z" fill="black"/>
<path d="M20.556 10.4214C19.9907 10.4214 19.532 10.8796 19.532 11.4451C19.532 12.0104 19.9907 12.4691 20.556 12.4691C21.1214 12.4691 21.58 12.0104 21.58 11.4451C21.58 10.8798 21.1214 10.4214 20.556 10.4214Z" fill="black"/>
<path d="M18.8452 16.0002C18.8452 14.4292 17.5716 13.1558 16.0007 13.1558C14.4296 13.1558 13.1562 14.4292 13.1562 16.0002C13.1562 17.5711 14.4296 18.8447 16.0007 18.8447C17.5716 18.8447 18.8452 17.5711 18.8452 16.0002Z" fill="white"/>
</g>
<defs>
<clipPath id="clip0_4136_2459">
<rect width="32" height="32" fill="white"/>
</clipPath>
</defs>
</svg>
