<svg width="47" height="47" viewBox="0 0 47 47" fill="none" xmlns="http://www.w3.org/2000/svg">
<path d="M18.6798 29.8268C15.549 29.8268 12.8958 28.7391 10.7201 26.5637C8.54472 24.388 7.45703 21.7348 7.45703 18.6041C7.45703 15.4733 8.54472 12.8201 10.7201 10.6444C12.8958 8.46904 15.549 7.38135 18.6798 7.38135C21.8105 7.38135 24.4637 8.46904 26.6394 10.6444C28.8148 12.8201 29.9025 15.4733 29.9025 18.6041C29.9025 19.9648 29.6614 21.2816 29.1794 22.5545C28.6973 23.8274 28.0646 24.9158 27.2812 25.8195L38.8506 37.3889C39.0337 37.5723 39.1316 37.797 39.1443 38.063C39.1567 38.3294 39.0588 38.5667 38.8506 38.7749C38.642 38.9831 38.4109 39.0873 38.1573 39.0873C37.9041 39.0873 37.6731 38.9831 37.4646 38.7749L25.8952 27.2056C24.9161 28.0392 23.79 28.6844 22.5171 29.1414C21.2442 29.5983 19.9651 29.8268 18.6798 29.8268ZM18.6798 27.8685C21.2781 27.8685 23.4718 26.974 25.2607 25.185C27.0497 23.3964 27.9441 21.2028 27.9441 18.6041C27.9441 16.0054 27.0497 13.8117 25.2607 12.0231C23.4718 10.2341 21.2781 9.33968 18.6798 9.33968C16.081 9.33968 13.8874 10.2341 12.0988 12.0231C10.3098 13.8117 9.41536 16.0054 9.41536 18.6041C9.41536 21.2028 10.3098 23.3964 12.0988 25.185C13.8874 26.974 16.081 27.8685 18.6798 27.8685Z" fill="black" fill-opacity="0.4"/>
</svg>
