<svg width="52" height="18" viewBox="0 0 52 18" fill="none" xmlns="http://www.w3.org/2000/svg">
<g clip-path="url(#clip0_4136_2478)">
<path d="M33.7106 0.658203C30.0932 0.658203 26.8603 2.58345 26.8603 6.13969C26.8603 10.2185 32.5937 10.5002 32.5937 12.5495C32.5937 13.4124 31.6308 14.1847 29.9855 14.1847C27.6513 14.1847 25.9066 13.1056 25.9066 13.1056L25.1599 16.6948C25.1599 16.6948 27.1698 17.6064 29.8382 17.6064C33.7932 17.6064 36.9057 15.5869 36.9057 11.9694C36.9057 7.65916 31.1483 7.38584 31.1483 5.48416C31.1483 4.8082 31.9388 4.06784 33.579 4.06784C35.4298 4.06784 36.9394 4.8527 36.9394 4.8527L37.6702 1.38652C37.6702 1.38652 36.027 0.658203 33.7101 0.658203H33.7106ZM0.613111 0.919999L0.525391 1.44307C0.525391 1.44307 2.04723 1.72895 3.41811 2.29967C5.18322 2.95363 5.30868 3.33481 5.60601 4.51708L8.84502 17.3362H13.1872L19.8763 0.919999H15.5444L11.2461 12.0814L9.49221 2.6201C9.33156 1.53731 8.51658 0.919476 7.51953 0.919476H0.613621L0.613111 0.919999ZM21.6185 0.919999L18.2204 17.3362H22.3513L25.7372 0.919999H21.6185ZM44.6582 0.919999C43.6622 0.919999 43.1344 1.46768 42.7473 2.42428L36.6951 17.3362H41.027L41.865 14.8507H47.1424L47.6519 17.3362H51.4744L48.14 0.919999H44.6582ZM45.2218 5.35535L46.506 11.5154H43.066L45.2223 5.35535H45.2218Z" fill="#B1B1B1"/>
</g>
<defs>
<clipPath id="clip0_4136_2478">
<rect width="51" height="17" fill="white" transform="translate(0.5 0.631836)"/>
</clipPath>
</defs>
</svg>
